<?xml version="1.0" encoding="UTF-8" standalone="no"?>
<svg xmlns="http://www.w3.org/2000/svg" width="256" height="256" version="1.0">
    <g>
        <path style="fill:#000000" d="m 0,128 0,-128 128,0 128,0 0,128 0,128 -128,0 -128,0 0,-128 z m 84,84 0,-40 -40,0 -40,0 0,40 0,40 40,0 40,0 0,-40 z m -72,0 0,-32 32,0 32,0 0,32 0,32 -32,0 -32,0 0,-32 z m 156,0 0,-40 -40,0 -40,0 0,40 0,40 40,0 40,0 0,-40 z m -72,0 0,-32 32,0 32,0 0,32 0,32 -32,0 -32,0 0,-32 z m 156,0 0,-40 -40,0 -40,0 0,40 0,40 40,0 40,0 0,-40 z m -72,0 0,-32 32,0 32,0 0,32 0,32 -32,0 -32,0 0,-32 z m -96,-84 0,-40 -40,0 -40,0 0,40 0,40 40,0 40,0 0,-40 z m 84,0 0,-40 -40,0 -40,0 0,40 0,40 40,0 40,0 0,-40 z m 84,0 0,-40 -40,0 -40,0 0,40 0,40 40,0 40,0 0,-40 z m -72,0 0,-32 32,0 32,0 0,32 0,32 -32,0 -32,0 0,-32 z m -96,-84 0,-40 -40,0 -40,0 0,40 0,40 40,0 40,0 0,-40 z m 84,0 0,-40 -40,0 -40,0 0,40 0,40 40,0 40,0 0,-40 z m -72,0 0,-32 32,0 32,0 0,32 0,32 -32,0 -32,0 0,-32 z m 156,0 0,-40 -40,0 -40,0 0,40 0,40 40,0 40,0 0,-40 z" id="path" />
    </g>
</svg>